<?xml version="1.0" encoding="UTF-8"?>
<!DOCTYPE svg PUBLIC "-//W3C//DTD SVG 1.1//EN" "http://www.w3.org/Graphics/SVG/1.1/DTD/svg11.dtd">
<!-- Creator: CorelDRAW (Evaluation Version) -->
<svg xmlns="http://www.w3.org/2000/svg" xml:space="preserve" width="11.4849in" height="5.51152in" version="1.1" style="shape-rendering:geometricPrecision; text-rendering:geometricPrecision; image-rendering:optimizeQuality; fill-rule:evenodd; clip-rule:evenodd"
viewBox="0 0 2072.4 994.53"
 xmlns:xlink="http://www.w3.org/1999/xlink"
 xmlns:xodm="http://www.corel.com/coreldraw/odm/2003">
 <defs>
  <style type="text/css">
   <![CDATA[
    .str0 {stroke:black;stroke-width:1.42;stroke-miterlimit:22.9256}
    .fil2 {fill:none}
    .fil1 {fill:black}
    .fil0 {fill:#CCCCCC}
   ]]>
  </style>
 </defs>
 <g id="Layer_x0020_1">
  <metadata id="CorelCorpID_0Corel-Layer"/>
  <polygon id="base_pa_oeste" class="fil0 str0" points="721.9,993.81 1716.48,993.81 1716.48,567.56 2071.69,567.56 2071.69,246.75 2071.69,0.71 1716.48,0.71 1143.56,0.71 1143.56,141.32 721.9,141.32 224.61,141.32 224.61,993.81 "/>
  <rect id="baños_oficina_intendente_pa_oeste" class="fil0 str0" transform="matrix(0 -2.80804E-001 0.310909 0 1716.48 567.565)" width="1142.48" height="1142.48"/>
  <rect id="oficina_intendente_pa_oeste" class="fil0 str0" transform="matrix(0 -6.5389E-001 0.497455 0 1148.15 993.807)" width="1142.48" height="1142.48"/>
  <rect id="ascensor_pa_oeste" class="fil1 str0" transform="matrix(0 -2.25092E-001 0.275922 0 930.44 424.356)" width="789.02" height="789.02"/>
  <rect id="recepcion_intendencia_pa_oeste" class="fil0 str0" transform="matrix(0 -7.44705E-001 1.07512 0 1716.48 246.753)" width="330.39" height="330.39"/>
  <rect id="oficina2_secretaria_pa_oeste" class="fil0 str0" transform="matrix(0 -4.50184E-001 0.270111 0 224.612 993.816)" width="789.02" height="789.02"/>
  <rect id="oficina3_secretaria_pa_oeste" class="fil0 str0" transform="matrix(0 -4.50184E-001 0.540221 0 437.736 993.807)" width="789.02" height="789.02"/>
  <rect id="sala_de_reuniones_pa_oeste" class="fil0 str0" transform="matrix(0 -7.20295E-001 0.360148 0 863.984 993.816)" width="789.02" height="789.02"/>
  <rect id="oficina1_secretaria_pa_oeste" class="fil0 str0" transform="matrix(0 -4.50184E-001 0.270111 0 437.736 496.518)" width="789.02" height="789.02"/>
  <rect id="oficina_sarmiento_pa_oeste" class="fil0 str0" transform="matrix(0 -4.50184E-001 0.270111 0 224.612 496.518)" width="789.02" height="789.02"/>
  <rect id="puente_pa_oeste" class="fil0 str0" x="0.71" y="496.52" width="223.9" height="142.08"/>
  <polygon id="pasillos_pa_oeste" class="fil2 str0" points="930.44,246.75 930.44,424.36 863.98,425.49 863.98,638.6 437.74,638.6 437.74,638.61 224.61,638.61 224.61,496.52 437.74,496.52 650.86,496.52 650.86,141.32 721.9,141.32 1143.56,141.32 1143.56,0.71 1716.48,0.71 1716.48,246.75 1148.15,246.75 "/>
 </g>
</svg>
