<?xml version="1.0" encoding="UTF-8"?>
<!DOCTYPE svg PUBLIC "-//W3C//DTD SVG 1.1//EN" "http://www.w3.org/Graphics/SVG/1.1/DTD/svg11.dtd">
<!-- Creator: CorelDRAW (Evaluation Version) -->
<svg xmlns="http://www.w3.org/2000/svg" xml:space="preserve" width="17.6162in" height="5.51969in" version="1.1" style="shape-rendering:geometricPrecision; text-rendering:geometricPrecision; image-rendering:optimizeQuality; fill-rule:evenodd; clip-rule:evenodd"
viewBox="0 0 12959.77 4060.69"
 xmlns:xlink="http://www.w3.org/1999/xlink"
 xmlns:xodm="http://www.corel.com/coreldraw/odm/2003">
 <defs>
  <style type="text/css">
   <![CDATA[
    .str0 {stroke:black;stroke-width:5.79;stroke-miterlimit:22.9256}
    .str1 {stroke:black;stroke-width:5.79;stroke-miterlimit:22.9256}
    .fil1 {fill:none}
    .fil2 {fill:black}
    .fil0 {fill:#CCCCCC}
   ]]>
  </style>
 </defs>
 <g id="Layer_x0020_1">
  <metadata id="CorelCorpID_0Corel-Layer"/>
  <polygon id="base_pa_este" class="fil0 str0" points="12044.03,4057.79 12044.03,1657.65 12044.03,582.17 10016.59,582.17 6018.2,582.17 6018.2,2.9 2609.61,2.9 1963.31,2.9 2.9,2.9 2.9,2030.34 1906.8,2030.34 1906.8,4057.8 12044.03,4057.8 "/>
  <rect id="baños_hombres_pa_este" class="fil0 str0" transform="matrix(0 -2.46971E-001 0.315129 0 2.89635 797.367)" width="3216.85" height="3216.85"/>
  <rect id="baños_mujeres_pa_este" class="fil1 str0" transform="matrix(0 -2.46024E-001 0.315129 0 2.89635 1588.79)" width="3216.85" height="3216.85"/>
  <rect id="cocina_pa_este" class="fil0 str0" transform="matrix(0 -2.46498E-001 0.315129 0 1595.89 1588.79)" width="3216.85" height="3216.85"/>
  <rect id="deposito_pa_este" class="fil0 str0" transform="matrix(0 -2.46497E-001 0.315129 0 1595.89 795.842)" width="3216.85" height="3216.85"/>
  <rect id="aula5_pa_este" class="fil0 str0" transform="matrix(0 -6.30259E-001 1.26052 0 1906.8 4057.79)" width="3216.85" height="3216.85"/>
  <rect id="aula6_pa_este" class="fil0 str0" transform="matrix(0 -6.30259E-001 0.990406 0 5961.69 4057.79)" width="3216.85" height="3216.85"/>
  <rect id="oficina_emilio_pa_este" class="fil0 str0" transform="matrix(0 -4.50184E-001 0.315129 0 11030.3 4057.8)" width="3216.85" height="3216.85"/>
  <polygon id="oficina_esteban_pa_este" class="fil0 str0" points="10016.58,4057.8 11030.31,4057.8 11030.31,2609.62 9954.52,2609.62 9147.68,2609.62 9147.68,3181.82 10016.58,3181.82 "/>
  <polygon id="administracion_pa_este" class="fil0 str0" points="10885.49,2030.35 12044.03,2030.35 12044.03,582.17 10885.49,582.17 10016.58,582.17 10016.58,2030.35 "/>
  <rect id="ascensor_pa_este" class="fil2 str0" transform="matrix(0 -2.25092E-001 0.349687 0 4547.16 1588.79)" width="3216.85" height="3216.85"/>
  <rect id="baños_oficina_esteban_pa_este" class="fil0 str0" transform="matrix(0 -3.24818E-001 0.322197 0 9147.68 4057.8)" width="2696.81" height="2696.81"/>
  <rect id="baños_administracion_pa_este" class="fil0 str0" transform="matrix(0 -2.39014E-001 0.322197 0 9147.68 1226.74)" width="2696.81" height="2696.81"/>
  <rect id="sala_de_servidores_pa_este" class="fil0 str0" transform="matrix(0 -3.73263E-001 0.322197 0 5672.05 1588.79)" width="2696.81" height="2696.81"/>
  <rect id="oficina_sala_de_servidores_pa_este" class="fil0 str0" transform="matrix(0 -3.73263E-001 0.322197 0 6540.96 1588.79)" width="2696.81" height="2696.81"/>
  <rect id="prensa_pa_este" class="fil0 str0" transform="matrix(0 -3.73262E-001 0.644395 0 7409.87 1588.79)" width="2696.81" height="2696.81"/>
  <rect id="baños_adaptados_pa_este" class="fil0 str0" x="2.9" y="1588.79" width="1013.72" height="441.55"/>
  <path id="pasillos_pa_este" class="fil1 str1" data-kind="area" data-active-area="true" d="M12044.03 2609.62l0 -579.27 -1158.54 0 -868.91 0 0 -803.6 -868.91 0 0 362.04 -1737.81 0 -868.91 0 -868.91 0 -1124.89 0 0 -724.09 1124.89 0 0 -282.53c0,0 346.15,-0 346.15,-0l0 -579.27 -3408.59 0 -2.22 0 2.22 792.95 0 792.95 -1013.72 0 0 -792.95 0 -792.95 -579.27 0 0 794.47 0 791.42 0 441.55 890.18 0 0 0 4054.89 0 3185.99 0 0 579.27 806.84 0 1075.79 0 1013.72 0z"/>
  <rect id="puente_pa_este" class="fil0 str0" data-kind="area" data-active-area="true" x="12044.03" y="2030.34" width="912.85" height="579.27"/>
 </g>
</svg>
